<svg class="main-svg" xmlns="http://www.w3.org/2000/svg" xmlns:xlink="http://www.w3.org/1999/xlink" width="1100" height="700" style="" viewBox="0 0 1100 700"><rect x="0" y="0" width="1100" height="700" style="fill: rgb(0, 0, 0); fill-opacity: 0;"/><defs id="defs-b5978a"><g class="clips"><clipPath id="clipb5978axyplot" class="plotclip"><rect width="940" height="400"/></clipPath><clipPath id="clipb5978axy2plot" class="plotclip"><rect width="940" height="400"/></clipPath><clipPath class="axesclip" id="clipb5978ax"><rect x="80" y="0" width="940" height="700"/></clipPath><clipPath class="axesclip" id="clipb5978ay"><rect x="0" y="150" width="1100" height="400"/></clipPath><clipPath class="axesclip" id="clipb5978axy"><rect x="80" y="150" width="940" height="400"/></clipPath><clipPath class="axesclip" id="clipb5978ay2"><rect x="0" y="150" width="1100" height="400"/></clipPath><clipPath class="axesclip" id="clipb5978axy2"><rect x="80" y="150" width="940" height="400"/></clipPath></g><g class="gradients"/><g class="patterns"/></defs><g class="bglayer"><rect class="bg" x="80" y="150" width="940" height="400" style="fill: rgb(0, 0, 0); fill-opacity: 0; stroke-width: 0;"/></g><g class="layer-below"><g class="imagelayer"/><g class="shapelayer"/></g><g class="cartesianlayer"><g class="subplot xy"><g class="layer-subplot"><g class="shapelayer"/><g class="imagelayer"/></g><g class="minor-gridlayer"><g class="x"/><g class="y"/><g class="y2"/></g><g class="gridlayer"><g class="x"/><g class="y"><path class="ygrid crisp" transform="translate(0,472.13)" d="M80,0h940" style="stroke: rgb(0, 0, 0); stroke-opacity: 0.05; stroke-width: 1px;"/><path class="ygrid crisp" transform="translate(0,394.26)" d="M80,0h940" style="stroke: rgb(0, 0, 0); stroke-opacity: 0.05; stroke-width: 1px;"/><path class="ygrid crisp" transform="translate(0,316.39)" d="M80,0h940" style="stroke: rgb(0, 0, 0); stroke-opacity: 0.05; stroke-width: 1px;"/><path class="ygrid crisp" transform="translate(0,238.51999999999998)" d="M80,0h940" style="stroke: rgb(0, 0, 0); stroke-opacity: 0.05; stroke-width: 1px;"/><path class="ygrid crisp" transform="translate(0,160.65)" d="M80,0h940" style="stroke: rgb(0, 0, 0); stroke-opacity: 0.05; stroke-width: 1px;"/></g><g class="y2"/></g><g class="zerolinelayer"><path class="yzl zl crisp" transform="translate(0,550)" d="M80,0h940" style="stroke: rgb(235, 240, 248); stroke-opacity: 1; stroke-width: 2px;"/><path class="y2zl zl crisp" transform="translate(0,550)" d="M80,0h940" style="stroke: rgb(235, 240, 248); stroke-opacity: 1; stroke-width: 2px;"/></g><g class="layer-between"><g class="shapelayer"/><g class="imagelayer"/></g><path class="xlines-below"/><path class="ylines-below"/><g class="overlines-below"><path class="xy2-x"/><path class="xy2-y"/></g><g class="xaxislayer-below"/><g class="yaxislayer-below"/><g class="overaxes-below"><g class="xy2-x"/><g class="xy2-y"/></g><g class="overplot"><g class="xy" transform="translate(80,150)" clip-path="url(#clipb5978axyplot)"><g class="barlayer mlayer"><g class="trace bars" style="opacity: 0.85;"><g class="points"><g class="point"><path d="M4.09,400V20H36.78V400Z" style="vector-effect: none; opacity: 1; stroke-width: 0.5px; fill: rgb(44, 62, 80); fill-opacity: 1; stroke: rgb(255, 255, 255); stroke-opacity: 1;"/></g><g class="point"><path d="M44.96,400V33.2H77.65V400Z" style="vector-effect: none; opacity: 1; stroke-width: 0.5px; fill: rgb(44, 62, 80); fill-opacity: 1; stroke: rgb(255, 255, 255); stroke-opacity: 1;"/></g><g class="point"><path d="M85.83,400V209.71H118.52V400Z" style="vector-effect: none; opacity: 1; stroke-width: 0.5px; fill: rgb(44, 62, 80); fill-opacity: 1; stroke: rgb(255, 255, 255); stroke-opacity: 1;"/></g><g class="point"><path d="M126.7,400V259.67H159.39V400Z" style="vector-effect: none; opacity: 1; stroke-width: 0.5px; fill: rgb(44, 62, 80); fill-opacity: 1; stroke: rgb(255, 255, 255); stroke-opacity: 1;"/></g><g class="point"><path d="M167.57,400V267.74H200.26V400Z" style="vector-effect: none; opacity: 1; stroke-width: 0.5px; fill: rgb(44, 62, 80); fill-opacity: 1; stroke: rgb(255, 255, 255); stroke-opacity: 1;"/></g><g class="point"><path d="M208.43,400V269.98H241.13V400Z" style="vector-effect: none; opacity: 1; stroke-width: 0.5px; fill: rgb(44, 62, 80); fill-opacity: 1; stroke: rgb(255, 255, 255); stroke-opacity: 1;"/></g><g class="point"><path d="M249.3,400V274.82H282V400Z" style="vector-effect: none; opacity: 1; stroke-width: 0.5px; fill: rgb(44, 62, 80); fill-opacity: 1; stroke: rgb(255, 255, 255); stroke-opacity: 1;"/></g><g class="point"><path d="M290.17,400V293.89H322.87V400Z" style="vector-effect: none; opacity: 1; stroke-width: 0.5px; fill: rgb(44, 62, 80); fill-opacity: 1; stroke: rgb(255, 255, 255); stroke-opacity: 1;"/></g><g class="point"><path d="M331.04,400V298.77H363.74V400Z" style="vector-effect: none; opacity: 1; stroke-width: 0.5px; fill: rgb(44, 62, 80); fill-opacity: 1; stroke: rgb(255, 255, 255); stroke-opacity: 1;"/></g><g class="point"><path d="M371.91,400V299.87H404.61V400Z" style="vector-effect: none; opacity: 1; stroke-width: 0.5px; fill: rgb(44, 62, 80); fill-opacity: 1; stroke: rgb(255, 255, 255); stroke-opacity: 1;"/></g><g class="point"><path d="M412.78,400V304.15H445.48V400Z" style="vector-effect: none; opacity: 1; stroke-width: 0.5px; fill: rgb(44, 62, 80); fill-opacity: 1; stroke: rgb(255, 255, 255); stroke-opacity: 1;"/></g><g class="point"><path d="M453.65,400V311.34H486.35V400Z" style="vector-effect: none; opacity: 1; stroke-width: 0.5px; fill: rgb(44, 62, 80); fill-opacity: 1; stroke: rgb(255, 255, 255); stroke-opacity: 1;"/></g><g class="point"><path d="M494.52,400V324.24H527.22V400Z" style="vector-effect: none; opacity: 1; stroke-width: 0.5px; fill: rgb(44, 62, 80); fill-opacity: 1; stroke: rgb(255, 255, 255); stroke-opacity: 1;"/></g><g class="point"><path d="M535.39,400V325.05H568.09V400Z" style="vector-effect: none; opacity: 1; stroke-width: 0.5px; fill: rgb(44, 62, 80); fill-opacity: 1; stroke: rgb(255, 255, 255); stroke-opacity: 1;"/></g><g class="point"><path d="M576.26,400V349.56H608.96V400Z" style="vector-effect: none; opacity: 1; stroke-width: 0.5px; fill: rgb(44, 62, 80); fill-opacity: 1; stroke: rgb(255, 255, 255); stroke-opacity: 1;"/></g><g class="point"><path d="M617.13,400V349.58H649.83V400Z" style="vector-effect: none; opacity: 1; stroke-width: 0.5px; fill: rgb(44, 62, 80); fill-opacity: 1; stroke: rgb(255, 255, 255); stroke-opacity: 1;"/></g><g class="point"><path d="M658,400V352.59H690.7V400Z" style="vector-effect: none; opacity: 1; stroke-width: 0.5px; fill: rgb(44, 62, 80); fill-opacity: 1; stroke: rgb(255, 255, 255); stroke-opacity: 1;"/></g><g class="point"><path d="M698.87,400V358.82H731.57V400Z" style="vector-effect: none; opacity: 1; stroke-width: 0.5px; fill: rgb(44, 62, 80); fill-opacity: 1; stroke: rgb(255, 255, 255); stroke-opacity: 1;"/></g><g class="point"><path d="M739.74,400V375.36H772.43V400Z" style="vector-effect: none; opacity: 1; stroke-width: 0.5px; fill: rgb(44, 62, 80); fill-opacity: 1; stroke: rgb(255, 255, 255); stroke-opacity: 1;"/></g><g class="point"><path d="M780.61,400V378.83H813.3V400Z" style="vector-effect: none; opacity: 1; stroke-width: 0.5px; fill: rgb(44, 62, 80); fill-opacity: 1; stroke: rgb(255, 255, 255); stroke-opacity: 1;"/></g><g class="point"><path d="M821.48,400V385.24H854.17V400Z" style="vector-effect: none; opacity: 1; stroke-width: 0.5px; fill: rgb(44, 62, 80); fill-opacity: 1; stroke: rgb(255, 255, 255); stroke-opacity: 1;"/></g><g class="point"><path d="M862.35,400V388.04H895.04V400Z" style="vector-effect: none; opacity: 1; stroke-width: 0.5px; fill: rgb(44, 62, 80); fill-opacity: 1; stroke: rgb(255, 255, 255); stroke-opacity: 1;"/></g><g class="point"><path d="M903.22,400V392.8H935.91V400Z" style="vector-effect: none; opacity: 1; stroke-width: 0.5px; fill: rgb(44, 62, 80); fill-opacity: 1; stroke: rgb(255, 255, 255); stroke-opacity: 1;"/></g></g></g></g></g><g class="xy2" transform="translate(80,150)" clip-path="url(#clipb5978axy2plot)"><g class="scatterlayer mlayer"><g class="trace scatter traceb25cc6" style="stroke-miterlimit: 2; opacity: 1;"><g class="fills"/><g class="errorbars"/><g class="lines"><path class="js-line" d="M20.43,339.09Q46.31,295.8 61.3,280.3C73.95,267.22 88.23,258.78 102.17,249.8C115.5,241.21 129.37,234.61 143.04,227.31C156.62,220.05 170.27,213.12 183.91,206.11C197.52,199.11 211.13,192.1 224.78,185.27C238.38,178.47 251.93,171.43 265.65,165.21C279.18,159.08 292.87,153.75 306.52,148.2C320.12,142.67 333.76,137.35 347.39,131.97C361.01,126.59 374.62,121.16 388.26,115.92C401.86,110.69 415.48,105.5 429.13,100.56C442.72,95.64 456.33,90.76 470,86.35C483.57,81.98 497.24,78.24 510.87,74.21C524.49,70.18 538.04,65.55 551.74,62.19C565.29,58.87 578.99,56.8 592.61,54.11C606.23,51.42 619.85,48.64 633.48,46.03C647.1,43.42 660.71,40.8 674.35,38.43C687.96,36.07 701.57,33.59 715.22,31.83C728.82,30.08 742.46,29.11 756.09,27.88C769.71,26.66 783.33,25.44 796.96,24.48C810.58,23.52 824.2,22.83 837.83,22.12C851.45,21.41 865.07,20.71 878.7,20.2Q892.32,19.69 919.57,19.05" style="vector-effect: none; fill: none; stroke: rgb(231, 76, 60); stroke-opacity: 1; stroke-width: 4px; opacity: 1;"/></g><g class="points"/><g class="text"/></g></g></g></g><path class="xlines-above crisp" d="M0,0" style="fill: none;"/><path class="ylines-above crisp" d="M0,0" style="fill: none;"/><g class="overlines-above"><path class="xy2-x crisp" d="M0,0" style="fill: none;"/><path class="xy2-y crisp" d="M0,0" style="fill: none;"/></g><g class="xaxislayer-above"><g class="xtick"><text text-anchor="start" x="0" y="562" transform="translate(100.43,0) rotate(45,0,556.5)" style="font-family: 'Arial Black'; font-size: 11px; fill: rgb(42, 63, 95); fill-opacity: 1; white-space: pre; opacity: 1;">Western Europe</text></g><g class="xtick"><text text-anchor="start" x="0" y="562" transform="translate(141.3,0) rotate(45,0,556.5)" style="font-family: 'Arial Black'; font-size: 11px; fill: rgb(42, 63, 95); fill-opacity: 1; white-space: pre; opacity: 1;">Central America</text></g><g class="xtick"><text text-anchor="start" x="0" y="562" transform="translate(182.17000000000002,0) rotate(45,0,556.5)" style="font-family: 'Arial Black'; font-size: 11px; fill: rgb(42, 63, 95); fill-opacity: 1; white-space: pre; opacity: 1;">South America</text></g><g class="xtick"><text text-anchor="start" x="0" y="562" transform="translate(223.04,0) rotate(45,0,556.5)" style="font-family: 'Arial Black'; font-size: 11px; fill: rgb(42, 63, 95); fill-opacity: 1; white-space: pre; opacity: 1;">Northern Europe</text></g><g class="xtick"><text text-anchor="start" x="0" y="562" transform="translate(263.90999999999997,0) rotate(45,0,556.5)" style="font-family: 'Arial Black'; font-size: 11px; fill: rgb(42, 63, 95); fill-opacity: 1; white-space: pre; opacity: 1;">Southern Europe</text></g><g class="xtick"><text text-anchor="start" x="0" y="562" transform="translate(304.78,0) rotate(45,0,556.5)" style="font-family: 'Arial Black'; font-size: 11px; fill: rgb(42, 63, 95); fill-opacity: 1; white-space: pre; opacity: 1;">Oceania</text></g><g class="xtick"><text text-anchor="start" x="0" y="562" transform="translate(345.65,0) rotate(45,0,556.5)" style="font-family: 'Arial Black'; font-size: 11px; fill: rgb(42, 63, 95); fill-opacity: 1; white-space: pre; opacity: 1;">Southeast Asia</text></g><g class="xtick"><text text-anchor="start" x="0" y="562" transform="translate(386.52,0) rotate(45,0,556.5)" style="font-family: 'Arial Black'; font-size: 11px; fill: rgb(42, 63, 95); fill-opacity: 1; white-space: pre; opacity: 1;">Caribbean</text></g><g class="xtick"><text text-anchor="start" x="0" y="562" transform="translate(427.39,0) rotate(45,0,556.5)" style="font-family: 'Arial Black'; font-size: 11px; fill: rgb(42, 63, 95); fill-opacity: 1; white-space: pre; opacity: 1;">South Asia</text></g><g class="xtick"><text text-anchor="start" x="0" y="562" transform="translate(468.26,0) rotate(45,0,556.5)" style="font-family: 'Arial Black'; font-size: 11px; fill: rgb(42, 63, 95); fill-opacity: 1; white-space: pre; opacity: 1;">West of USA</text></g><g class="xtick"><text text-anchor="start" x="0" y="562" transform="translate(509.13,0) rotate(45,0,556.5)" style="font-family: 'Arial Black'; font-size: 11px; fill: rgb(42, 63, 95); fill-opacity: 1; white-space: pre; opacity: 1;">Eastern Asia</text></g><g class="xtick"><text text-anchor="start" x="0" y="562" transform="translate(550,0) rotate(45,0,556.5)" style="font-family: 'Arial Black'; font-size: 11px; fill: rgb(42, 63, 95); fill-opacity: 1; white-space: pre; opacity: 1;">East of USA</text></g><g class="xtick"><text text-anchor="start" x="0" y="562" transform="translate(590.87,0) rotate(45,0,556.5)" style="font-family: 'Arial Black'; font-size: 11px; fill: rgb(42, 63, 95); fill-opacity: 1; white-space: pre; opacity: 1;">West Asia</text></g><g class="xtick"><text text-anchor="start" x="0" y="562" transform="translate(631.74,0) rotate(45,0,556.5)" style="font-family: 'Arial Black'; font-size: 11px; fill: rgb(42, 63, 95); fill-opacity: 1; white-space: pre; opacity: 1;">US Center</text></g><g class="xtick"><text text-anchor="start" x="0" y="562" transform="translate(672.61,0) rotate(45,0,556.5)" style="font-family: 'Arial Black'; font-size: 11px; fill: rgb(42, 63, 95); fill-opacity: 1; white-space: pre; opacity: 1;">South of USA</text></g><g class="xtick"><text text-anchor="start" x="0" y="562" transform="translate(713.48,0) rotate(45,0,556.5)" style="font-family: 'Arial Black'; font-size: 11px; fill: rgb(42, 63, 95); fill-opacity: 1; white-space: pre; opacity: 1;">Eastern Europe</text></g><g class="xtick"><text text-anchor="start" x="0" y="562" transform="translate(754.35,0) rotate(45,0,556.5)" style="font-family: 'Arial Black'; font-size: 11px; fill: rgb(42, 63, 95); fill-opacity: 1; white-space: pre; opacity: 1;">West Africa</text></g><g class="xtick"><text text-anchor="start" x="0" y="562" transform="translate(795.22,0) rotate(45,0,556.5)" style="font-family: 'Arial Black'; font-size: 11px; fill: rgb(42, 63, 95); fill-opacity: 1; white-space: pre; opacity: 1;">North Africa</text></g><g class="xtick"><text text-anchor="start" x="0" y="562" transform="translate(836.09,0) rotate(45,0,556.5)" style="font-family: 'Arial Black'; font-size: 11px; fill: rgb(42, 63, 95); fill-opacity: 1; white-space: pre; opacity: 1;">East Africa</text></g><g class="xtick"><text text-anchor="start" x="0" y="562" transform="translate(876.96,0) rotate(45,0,556.5)" style="font-family: 'Arial Black'; font-size: 11px; fill: rgb(42, 63, 95); fill-opacity: 1; white-space: pre; opacity: 1;">Central Africa</text></g><g class="xtick"><text text-anchor="start" x="0" y="562" transform="translate(917.83,0) rotate(45,0,556.5)" style="font-family: 'Arial Black'; font-size: 11px; fill: rgb(42, 63, 95); fill-opacity: 1; white-space: pre; opacity: 1;">Southern Africa</text></g><g class="xtick"><text text-anchor="start" x="0" y="562" transform="translate(958.7,0) rotate(45,0,556.5)" style="font-family: 'Arial Black'; font-size: 11px; fill: rgb(42, 63, 95); fill-opacity: 1; white-space: pre; opacity: 1;">Canada</text></g><g class="xtick"><text text-anchor="start" x="0" y="562" transform="translate(999.57,0) rotate(45,0,556.5)" style="font-family: 'Arial Black'; font-size: 11px; fill: rgb(42, 63, 95); fill-opacity: 1; white-space: pre; opacity: 1;">Central Asia</text></g></g><g class="yaxislayer-above"><g class="ytick"><text text-anchor="end" x="79" y="4.199999999999999" transform="translate(0,550)" style="font-family: 'Open Sans', verdana, arial, sans-serif; font-size: 12px; fill: rgb(42, 63, 95); fill-opacity: 1; white-space: pre; opacity: 1;">0</text></g><g class="ytick"><text text-anchor="end" x="79" y="4.199999999999999" style="font-family: 'Open Sans', verdana, arial, sans-serif; font-size: 12px; fill: rgb(42, 63, 95); fill-opacity: 1; white-space: pre; opacity: 1;" transform="translate(0,472.13)">1M</text></g><g class="ytick"><text text-anchor="end" x="79" y="4.199999999999999" style="font-family: 'Open Sans', verdana, arial, sans-serif; font-size: 12px; fill: rgb(42, 63, 95); fill-opacity: 1; white-space: pre; opacity: 1;" transform="translate(0,394.26)">2M</text></g><g class="ytick"><text text-anchor="end" x="79" y="4.199999999999999" style="font-family: 'Open Sans', verdana, arial, sans-serif; font-size: 12px; fill: rgb(42, 63, 95); fill-opacity: 1; white-space: pre; opacity: 1;" transform="translate(0,316.39)">3M</text></g><g class="ytick"><text text-anchor="end" x="79" y="4.199999999999999" style="font-family: 'Open Sans', verdana, arial, sans-serif; font-size: 12px; fill: rgb(42, 63, 95); fill-opacity: 1; white-space: pre; opacity: 1;" transform="translate(0,238.51999999999998)">4M</text></g><g class="ytick"><text text-anchor="end" x="79" y="4.199999999999999" style="font-family: 'Open Sans', verdana, arial, sans-serif; font-size: 12px; fill: rgb(42, 63, 95); fill-opacity: 1; white-space: pre; opacity: 1;" transform="translate(0,160.65)">5M</text></g></g><g class="overaxes-above"><g class="xy2-x"/><g class="xy2-y"><g class="y2tick"><text text-anchor="start" x="1021" y="4.199999999999999" transform="translate(0,550)" style="font-family: 'Open Sans', verdana, arial, sans-serif; font-size: 12px; fill: rgb(42, 63, 95); fill-opacity: 1; white-space: pre; opacity: 1;">0</text></g><g class="y2tick"><text text-anchor="start" x="1021" y="4.199999999999999" style="font-family: 'Open Sans', verdana, arial, sans-serif; font-size: 12px; fill: rgb(42, 63, 95); fill-opacity: 1; white-space: pre; opacity: 1;" transform="translate(0,473.81)">20</text></g><g class="y2tick"><text text-anchor="start" x="1021" y="4.199999999999999" style="font-family: 'Open Sans', verdana, arial, sans-serif; font-size: 12px; fill: rgb(42, 63, 95); fill-opacity: 1; white-space: pre; opacity: 1;" transform="translate(0,397.62)">40</text></g><g class="y2tick"><text text-anchor="start" x="1021" y="4.199999999999999" style="font-family: 'Open Sans', verdana, arial, sans-serif; font-size: 12px; fill: rgb(42, 63, 95); fill-opacity: 1; white-space: pre; opacity: 1;" transform="translate(0,321.43)">60</text></g><g class="y2tick"><text text-anchor="start" x="1021" y="4.199999999999999" style="font-family: 'Open Sans', verdana, arial, sans-serif; font-size: 12px; fill: rgb(42, 63, 95); fill-opacity: 1; white-space: pre; opacity: 1;" transform="translate(0,245.24)">80</text></g><g class="y2tick"><text text-anchor="start" x="1021" y="4.199999999999999" style="font-family: 'Open Sans', verdana, arial, sans-serif; font-size: 12px; fill: rgb(42, 63, 95); fill-opacity: 1; white-space: pre; opacity: 1;" transform="translate(0,169.05)">100</text></g></g></g></g><g class="subplot xy2"/></g><g class="polarlayer"/><g class="smithlayer"/><g class="ternarylayer"/><g class="geolayer"/><g class="funnelarealayer"/><g class="pielayer"/><g class="iciclelayer"/><g class="treemaplayer"/><g class="sunburstlayer"/><g class="glimages"/><defs id="topdefs-b5978a"><g class="clips"/></defs><g class="layer-above"><g class="imagelayer"/><g class="shapelayer"><g class="shape-group" data-index="0" clip-path="url(#clipb5978ay2)"><path data-index="0" fill-rule="evenodd" d="M80,245.24L1020,245.24" style="opacity: 1; stroke: rgb(39, 174, 96); stroke-opacity: 1; fill: rgb(0, 0, 0); fill-opacity: 0; stroke-dasharray: 9px, 9px; stroke-width: 2.5px;"/></g></g></g><g class="infolayer"><g class="g-gtitle"><text class="gtitle" x="0" y="56" text-anchor="start" dy="0.7em" style="opacity: 1; font-family: Arial; font-size: 30px; fill: rgb(44, 62, 80); fill-opacity: 1; white-space: pre;"><tspan class="line" dy="0em" x="0" y="56"><tspan style="font-weight:bold">Strategic Revenue Audit: Regional Concentration</tspan></tspan><tspan class="line" dy="1.3em" x="0" y="56"><tspan style="font-size:16px; fill:#666">Identifying the core regions driving 80% of total company revenues</tspan></tspan></text></g><g class="g-xtitle"><text class="xtitle" x="550" y="638.6828125" text-anchor="middle" style="opacity: 1; font-family: 'Open Sans', verdana, arial, sans-serif; font-size: 14px; fill: rgb(42, 63, 95); fill-opacity: 1; white-space: pre;"><tspan style="font-weight:bold">Order Region</tspan></text></g><g class="g-ytitle"><text class="ytitle" transform="rotate(-90,42.928125,350)" x="42.928125" y="350" text-anchor="middle" style="opacity: 1; font-family: 'Open Sans', verdana, arial, sans-serif; font-size: 14px; fill: rgb(42, 63, 95); fill-opacity: 1; white-space: pre;"><tspan style="font-weight:bold">Total Effective Revenues ($)</tspan></text></g><g class="g-y2title"><text class="y2title" transform="rotate(-90,1065.659375,350)" x="1065.659375" y="350" text-anchor="middle" style="opacity: 1; font-family: 'Open Sans', verdana, arial, sans-serif; font-size: 14px; fill: rgb(42, 63, 95); fill-opacity: 1; white-space: pre;"><tspan style="font-weight:bold">Cumulative Percentage (%)</tspan></text></g><g class="annotation" data-index="0" style="opacity: 1;"><g class="annotation-text-g" transform="rotate(0,154.5,236.24)"><g class="cursor-pointer" transform="translate(80,227)"><rect class="bg" x="0.5" y="0.5" width="148" height="17" style="stroke-width: 1px; stroke: rgb(0, 0, 0); stroke-opacity: 0; fill: rgb(0, 0, 0); fill-opacity: 0;"/><text class="annotation-text" text-anchor="middle" x="74.484375" y="13" style="font-family: 'Open Sans', verdana, arial, sans-serif; font-size: 12px; fill: rgb(39, 174, 96); fill-opacity: 1; white-space: pre;">80% Cut-off (Vital Regions)</text></g></g></g></g></svg>