<svg class="main-svg" xmlns="http://www.w3.org/2000/svg" xmlns:xlink="http://www.w3.org/1999/xlink" width="1250" height="650" style="" viewBox="0 0 1250 650"><rect x="0" y="0" width="1250" height="650" style="fill: rgb(0, 0, 0); fill-opacity: 0;"/><defs id="defs-dd8358"><g class="clips"><clipPath id="clipdd8358xyplot" class="plotclip"><rect width="467.81999999999994" height="470"/></clipPath><clipPath class="axesclip" id="clipdd8358x"><rect x="722.1800000000001" y="0" width="467.81999999999994" height="650"/></clipPath><clipPath class="axesclip" id="clipdd8358y"><rect x="0" y="120" width="1250" height="470"/></clipPath><clipPath class="axesclip" id="clipdd8358xy"><rect x="722.1800000000001" y="120" width="467.81999999999994" height="470"/></clipPath><clipPath id="clipdd8358polar-for-traces"><path d="M235,0A235,235 0,1,0 -235,-2.87791997799628e-14A235,235 0,1,0 235,5.75583995599256e-14Z" transform="translate(235,235)"/></clipPath></g><g class="gradients"/><g class="patterns"/></defs><g class="bglayer"><rect class="bg" x="722.1800000000001" y="120" width="467.81999999999994" height="470" style="fill: rgb(0, 0, 0); fill-opacity: 0; stroke-width: 0;"/></g><g class="layer-below"><g class="imagelayer"/><g class="shapelayer"/></g><g class="cartesianlayer"><g class="subplot xy"><g class="layer-subplot"><g class="shapelayer"/><g class="imagelayer"/></g><g class="minor-gridlayer"><g class="x"/><g class="y"/></g><g class="gridlayer"><g class="x"><path class="xgrid crisp" transform="translate(803.5400000000001,0)" d="M0,120v470" style="stroke: rgb(0, 0, 0); stroke-opacity: 0.06; stroke-width: 1px;"/><path class="xgrid crisp" transform="translate(884.9000000000001,0)" d="M0,120v470" style="stroke: rgb(0, 0, 0); stroke-opacity: 0.06; stroke-width: 1px;"/><path class="xgrid crisp" transform="translate(966.2600000000001,0)" d="M0,120v470" style="stroke: rgb(0, 0, 0); stroke-opacity: 0.06; stroke-width: 1px;"/><path class="xgrid crisp" transform="translate(1047.6200000000001,0)" d="M0,120v470" style="stroke: rgb(0, 0, 0); stroke-opacity: 0.06; stroke-width: 1px;"/><path class="xgrid crisp" transform="translate(1128.98,0)" d="M0,120v470" style="stroke: rgb(0, 0, 0); stroke-opacity: 0.06; stroke-width: 1px;"/></g><g class="y"/></g><g class="zerolinelayer"><path class="xzl zl crisp" transform="translate(722.1800000000001,0)" d="M0,120v470" style="stroke: rgb(255, 255, 255); stroke-opacity: 1; stroke-width: 2px;"/></g><g class="layer-between"><g class="shapelayer"/><g class="imagelayer"/></g><path class="xlines-below"/><path class="ylines-below"/><g class="overlines-below"/><g class="xaxislayer-below"/><g class="yaxislayer-below"/><g class="overaxes-below"/><g class="overplot"><g class="xy" transform="translate(722.1800000000001,120)" clip-path="url(#clipdd8358xyplot)"><g class="barlayer mlayer"><g class="trace bars" style="opacity: 1;"><g class="points"><g class="point"><path d="M0,460.6V385.4H137.91V460.6Z" style="vector-effect: none; opacity: 1; stroke-width: 1.5px; fill: rgb(231, 76, 60); fill-opacity: 1; stroke: rgb(255, 255, 255); stroke-opacity: 1;"/><text class="bartext bartext-outside" text-anchor="middle" data-notex="1" x="0" y="0" style="font-family: 'Arial Black'; font-size: 13px; fill: rgb(42, 63, 95); fill-opacity: 1; white-space: pre;" transform="translate(158.785,427.5)"><tspan style="font-weight:bold">33.9%</tspan></text></g><g class="point"><path d="M0,366.6V291.4H186.72V366.6Z" style="vector-effect: none; opacity: 1; stroke-width: 1.5px; fill: rgb(243, 156, 18); fill-opacity: 1; stroke: rgb(255, 255, 255); stroke-opacity: 1;"/><text class="bartext bartext-outside" text-anchor="middle" data-notex="1" x="0" y="0" style="font-family: 'Arial Black'; font-size: 13px; fill: rgb(42, 63, 95); fill-opacity: 1; white-space: pre;" transform="translate(207.595,333.5)"><tspan style="font-weight:bold">45.9%</tspan></text></g><g class="point"><path d="M0,272.6V197.4H232.69V272.6Z" style="vector-effect: none; opacity: 1; stroke-width: 1.5px; fill: rgb(243, 156, 18); fill-opacity: 1; stroke: rgb(255, 255, 255); stroke-opacity: 1;"/><text class="bartext bartext-outside" text-anchor="middle" data-notex="1" x="0" y="0" style="font-family: 'Arial Black'; font-size: 13px; fill: rgb(42, 63, 95); fill-opacity: 1; white-space: pre;" transform="translate(253.565,239.5)"><tspan style="font-weight:bold">57.2%</tspan></text></g><g class="point"><path d="M0,178.6V103.4H398.66V178.6Z" style="vector-effect: none; opacity: 1; stroke-width: 1.5px; fill: rgb(39, 174, 96); fill-opacity: 1; stroke: rgb(255, 255, 255); stroke-opacity: 1;"/><text class="bartext bartext-outside" text-anchor="middle" data-notex="1" x="0" y="0" style="font-family: 'Arial Black'; font-size: 13px; fill: rgb(42, 63, 95); fill-opacity: 1; white-space: pre;" transform="translate(419.535,145.5)"><tspan style="font-weight:bold">98.0%</tspan></text></g><g class="point"><path d="M0,84.6V9.4H406.8V84.6Z" style="vector-effect: none; opacity: 1; stroke-width: 1.5px; fill: rgb(39, 174, 96); fill-opacity: 1; stroke: rgb(255, 255, 255); stroke-opacity: 1;"/><text class="bartext bartext-outside" text-anchor="middle" data-notex="1" x="0" y="0" style="font-family: 'Arial Black'; font-size: 13px; fill: rgb(42, 63, 95); fill-opacity: 1; white-space: pre;" transform="translate(430.925,51.5)"><tspan style="font-weight:bold">100.0%</tspan></text></g></g></g></g></g></g><path class="xlines-above crisp" d="M0,0" style="fill: none;"/><path class="ylines-above crisp" d="M0,0" style="fill: none;"/><g class="overlines-above"/><g class="xaxislayer-above"><g class="xtick"><text text-anchor="middle" x="0" y="603" transform="translate(722.1800000000001,0)" style="font-family: Arial; font-size: 12px; fill: rgb(42, 63, 95); fill-opacity: 1; white-space: pre; opacity: 1;">0</text></g><g class="xtick"><text text-anchor="middle" x="0" y="603" style="font-family: Arial; font-size: 12px; fill: rgb(42, 63, 95); fill-opacity: 1; white-space: pre; opacity: 1;" transform="translate(803.5400000000001,0)">20</text></g><g class="xtick"><text text-anchor="middle" x="0" y="603" style="font-family: Arial; font-size: 12px; fill: rgb(42, 63, 95); fill-opacity: 1; white-space: pre; opacity: 1;" transform="translate(884.9000000000001,0)">40</text></g><g class="xtick"><text text-anchor="middle" x="0" y="603" style="font-family: Arial; font-size: 12px; fill: rgb(42, 63, 95); fill-opacity: 1; white-space: pre; opacity: 1;" transform="translate(966.2600000000001,0)">60</text></g><g class="xtick"><text text-anchor="middle" x="0" y="603" style="font-family: Arial; font-size: 12px; fill: rgb(42, 63, 95); fill-opacity: 1; white-space: pre; opacity: 1;" transform="translate(1047.6200000000001,0)">80</text></g><g class="xtick"><text text-anchor="middle" x="0" y="603" style="font-family: Arial; font-size: 12px; fill: rgb(42, 63, 95); fill-opacity: 1; white-space: pre; opacity: 1;" transform="translate(1128.98,0)">100</text></g></g><g class="yaxislayer-above"><g class="ytick"><text text-anchor="end" x="721.1800000000001" y="4.55" transform="translate(0,543)" style="font-family: Arial; font-size: 13px; fill: rgb(44, 62, 80); fill-opacity: 1; white-space: pre; opacity: 1;">Africa</text></g><g class="ytick"><text text-anchor="end" x="721.1800000000001" y="4.55" transform="translate(0,449)" style="font-family: Arial; font-size: 13px; fill: rgb(44, 62, 80); fill-opacity: 1; white-space: pre; opacity: 1;">USCA</text></g><g class="ytick"><text text-anchor="end" x="721.1800000000001" y="4.55" transform="translate(0,355)" style="font-family: Arial; font-size: 13px; fill: rgb(44, 62, 80); fill-opacity: 1; white-space: pre; opacity: 1;">Pacific Asia</text></g><g class="ytick"><text text-anchor="end" x="721.1800000000001" y="4.55" transform="translate(0,261)" style="font-family: Arial; font-size: 13px; fill: rgb(44, 62, 80); fill-opacity: 1; white-space: pre; opacity: 1;">Europe</text></g><g class="ytick"><text text-anchor="end" x="721.1800000000001" y="4.55" transform="translate(0,167)" style="font-family: Arial; font-size: 13px; fill: rgb(44, 62, 80); fill-opacity: 1; white-space: pre; opacity: 1;">LATAM</text></g></g><g class="overaxes-above"/></g></g><g class="polarlayer"><g class="polar"><g class="polarsublayer draglayer"/><g class="polarsublayer plotbg"><path d="M235,0A235,235 0,1,0 -235,-2.87791997799628e-14A235,235 0,1,0 235,5.75583995599256e-14Z" transform="translate(345.89000000000004,355)" style="fill: rgb(248, 249, 250); fill-opacity: 1;"/></g><g class="polarsublayer backplot"><g class="maplayer"/></g><g class="polarsublayer angular-grid" style="fill: none;"><path class="angularaxisgrid" d="M345.89000000000004,355L580.8900000000001,355" style="stroke: rgb(0, 0, 0); stroke-opacity: 0.08; stroke-width: 1px;"/><path class="angularaxisgrid" d="M345.89000000000004,355L418.5089936781127,131.50171867063892" style="stroke: rgb(0, 0, 0); stroke-opacity: 0.08; stroke-width: 1px;"/><path class="angularaxisgrid" d="M345.89000000000004,355L155.77100632188743,216.8704657112688" style="stroke: rgb(0, 0, 0); stroke-opacity: 0.08; stroke-width: 1px;"/><path class="angularaxisgrid" d="M345.89000000000004,355L155.7710063218874,493.1295342887312" style="stroke: rgb(0, 0, 0); stroke-opacity: 0.08; stroke-width: 1px;"/><path class="angularaxisgrid" d="M345.89000000000004,355L418.50899367811263,578.4982813293611" style="stroke: rgb(0, 0, 0); stroke-opacity: 0.08; stroke-width: 1px;"/></g><g class="polarsublayer radial-grid" transform="translate(345.89000000000004,355)" style="fill: none;"><path class="xgrid" d="M44.76,0A44.76,44.76 0,1,0 -44.76,-5.4815190729835526e-15A44.76,44.76 0,1,0 44.76,1.0963038145967105e-14Z" style="stroke: rgb(0, 0, 0); stroke-opacity: 0.06; stroke-width: 1px;"/><path class="xgrid" d="M89.52,0A89.52,89.52 0,1,0 -89.52,-1.0963038145967105e-14A89.52,89.52 0,1,0 89.52,2.192607629193421e-14Z" style="stroke: rgb(0, 0, 0); stroke-opacity: 0.06; stroke-width: 1px;"/><path class="xgrid" d="M134.29,0A134.29,134.29 0,1,0 -134.29,-1.6445781865749806e-14A134.29,134.29 0,1,0 134.29,3.289156373149961e-14Z" style="stroke: rgb(0, 0, 0); stroke-opacity: 0.06; stroke-width: 1px;"/><path class="xgrid" d="M179.05,0A179.05,179.05 0,1,0 -179.05,-2.1927300938733362e-14A179.05,179.05 0,1,0 179.05,4.3854601877466723e-14Z" style="stroke: rgb(0, 0, 0); stroke-opacity: 0.06; stroke-width: 1px;"/><path class="xgrid" d="M223.81,0A223.81,223.81 0,1,0 -223.81,-2.740882001171691e-14A223.81,223.81 0,1,0 223.81,5.481764002343382e-14Z" style="stroke: rgb(0, 0, 0); stroke-opacity: 0.06; stroke-width: 1px;"/></g><g class="polarsublayer frontplot" transform="translate(110.89000000000004,120)"><g class="barlayer"/><g class="scatterlayer"><g class="trace scatter trace006eaa" style="stroke-miterlimit: 2; opacity: 1;"><g class="fills" clip-path="url(#clipdd8358polar-for-traces)"><g><path class="js-fill" d="M237.24,235L235.69,232.87L53.93,103.45L53.93,366.55L301.96,441.09L237.24,235Z" style="fill: rgb(41, 128, 185); fill-opacity: 0.08; stroke-width: 0;"/></g></g><g class="errorbars"/><g class="lines"><path class="js-line" d="M237.24,235L235.69,232.87L53.93,103.45L53.93,366.55L301.96,441.09L237.24,235" clip-path="url(#clipdd8358polar-for-traces)" style="vector-effect: none; fill: none; stroke: rgb(41, 128, 185); stroke-opacity: 1; stroke-width: 2.5px; opacity: 1;"/></g><g class="points"><path class="point plotly-customdata" transform="translate(237.24,235)" d="M3.5,0A3.5,3.5 0 1,1 0,-3.5A3.5,3.5 0 0,1 3.5,0Z" style="opacity: 1; stroke-width: 0px; fill: rgb(41, 128, 185); fill-opacity: 1;"/><path class="point plotly-customdata" transform="translate(235.69,232.87)" d="M3.5,0A3.5,3.5 0 1,1 0,-3.5A3.5,3.5 0 0,1 3.5,0Z" style="opacity: 1; stroke-width: 0px; fill: rgb(41, 128, 185); fill-opacity: 1;"/><path class="point plotly-customdata" transform="translate(53.93,103.45)" d="M3.5,0A3.5,3.5 0 1,1 0,-3.5A3.5,3.5 0 0,1 3.5,0Z" style="opacity: 1; stroke-width: 0px; fill: rgb(41, 128, 185); fill-opacity: 1;"/><path class="point plotly-customdata" transform="translate(53.93,366.55)" d="M3.5,0A3.5,3.5 0 1,1 0,-3.5A3.5,3.5 0 0,1 3.5,0Z" style="opacity: 1; stroke-width: 0px; fill: rgb(41, 128, 185); fill-opacity: 1;"/><path class="point plotly-customdata" transform="translate(301.96,441.09)" d="M3.5,0A3.5,3.5 0 1,1 0,-3.5A3.5,3.5 0 0,1 3.5,0Z" style="opacity: 1; stroke-width: 0px; fill: rgb(41, 128, 185); fill-opacity: 1;"/><path class="point plotly-customdata" transform="translate(237.24,235)" d="M3.5,0A3.5,3.5 0 1,1 0,-3.5A3.5,3.5 0 0,1 3.5,0Z" style="opacity: 1; stroke-width: 0px; fill: rgb(41, 128, 185); fill-opacity: 1;"/></g><g class="text"/></g><g class="trace scatter trace37f92c" style="stroke-miterlimit: 2; opacity: 1;"><g class="fills" clip-path="url(#clipdd8358polar-for-traces)"><g><path class="js-fill" d="M380.9,235L260.62,156.16L206.21,214.08L66.82,357.19L304.16,447.86L380.9,235Z" style="fill: rgb(230, 126, 34); fill-opacity: 0.08; stroke-width: 0;"/></g></g><g class="errorbars"/><g class="lines"><path class="js-line" d="M380.9,235L260.62,156.16L206.21,214.08L66.82,357.19L304.16,447.86L380.9,235" clip-path="url(#clipdd8358polar-for-traces)" style="vector-effect: none; fill: none; stroke: rgb(230, 126, 34); stroke-opacity: 1; stroke-width: 2.5px; opacity: 1;"/></g><g class="points"><path class="point plotly-customdata" transform="translate(380.9,235)" d="M3.5,0A3.5,3.5 0 1,1 0,-3.5A3.5,3.5 0 0,1 3.5,0Z" style="opacity: 1; stroke-width: 0px; fill: rgb(230, 126, 34); fill-opacity: 1;"/><path class="point plotly-customdata" transform="translate(260.62,156.16)" d="M3.5,0A3.5,3.5 0 1,1 0,-3.5A3.5,3.5 0 0,1 3.5,0Z" style="opacity: 1; stroke-width: 0px; fill: rgb(230, 126, 34); fill-opacity: 1;"/><path class="point plotly-customdata" transform="translate(206.21,214.08)" d="M3.5,0A3.5,3.5 0 1,1 0,-3.5A3.5,3.5 0 0,1 3.5,0Z" style="opacity: 1; stroke-width: 0px; fill: rgb(230, 126, 34); fill-opacity: 1;"/><path class="point plotly-customdata" transform="translate(66.82,357.19)" d="M3.5,0A3.5,3.5 0 1,1 0,-3.5A3.5,3.5 0 0,1 3.5,0Z" style="opacity: 1; stroke-width: 0px; fill: rgb(230, 126, 34); fill-opacity: 1;"/><path class="point plotly-customdata" transform="translate(304.16,447.86)" d="M3.5,0A3.5,3.5 0 1,1 0,-3.5A3.5,3.5 0 0,1 3.5,0Z" style="opacity: 1; stroke-width: 0px; fill: rgb(230, 126, 34); fill-opacity: 1;"/><path class="point plotly-customdata" transform="translate(380.9,235)" d="M3.5,0A3.5,3.5 0 1,1 0,-3.5A3.5,3.5 0 0,1 3.5,0Z" style="opacity: 1; stroke-width: 0px; fill: rgb(230, 126, 34); fill-opacity: 1;"/></g><g class="text"/></g><g class="trace scatter traced54eac" style="stroke-miterlimit: 2; opacity: 1;"><g class="fills" clip-path="url(#clipdd8358polar-for-traces)"><g><path class="js-fill" d="M319.03,235L254.62,174.62L188.08,200.91L108.24,327.1L286.37,393.09L319.03,235Z" style="fill: rgb(39, 174, 96); fill-opacity: 0.08; stroke-width: 0;"/></g></g><g class="errorbars"/><g class="lines"><path class="js-line" d="M319.03,235L254.62,174.62L188.08,200.91L108.24,327.1L286.37,393.09L319.03,235" clip-path="url(#clipdd8358polar-for-traces)" style="vector-effect: none; fill: none; stroke: rgb(39, 174, 96); stroke-opacity: 1; stroke-width: 2.5px; opacity: 1;"/></g><g class="points"><path class="point plotly-customdata" transform="translate(319.03,235)" d="M3.5,0A3.5,3.5 0 1,1 0,-3.5A3.5,3.5 0 0,1 3.5,0Z" style="opacity: 1; stroke-width: 0px; fill: rgb(39, 174, 96); fill-opacity: 1;"/><path class="point plotly-customdata" transform="translate(254.62,174.62)" d="M3.5,0A3.5,3.5 0 1,1 0,-3.5A3.5,3.5 0 0,1 3.5,0Z" style="opacity: 1; stroke-width: 0px; fill: rgb(39, 174, 96); fill-opacity: 1;"/><path class="point plotly-customdata" transform="translate(188.08,200.91)" d="M3.5,0A3.5,3.5 0 1,1 0,-3.5A3.5,3.5 0 0,1 3.5,0Z" style="opacity: 1; stroke-width: 0px; fill: rgb(39, 174, 96); fill-opacity: 1;"/><path class="point plotly-customdata" transform="translate(108.24,327.1)" d="M3.5,0A3.5,3.5 0 1,1 0,-3.5A3.5,3.5 0 0,1 3.5,0Z" style="opacity: 1; stroke-width: 0px; fill: rgb(39, 174, 96); fill-opacity: 1;"/><path class="point plotly-customdata" transform="translate(286.37,393.09)" d="M3.5,0A3.5,3.5 0 1,1 0,-3.5A3.5,3.5 0 0,1 3.5,0Z" style="opacity: 1; stroke-width: 0px; fill: rgb(39, 174, 96); fill-opacity: 1;"/><path class="point plotly-customdata" transform="translate(319.03,235)" d="M3.5,0A3.5,3.5 0 1,1 0,-3.5A3.5,3.5 0 0,1 3.5,0Z" style="opacity: 1; stroke-width: 0px; fill: rgb(39, 174, 96); fill-opacity: 1;"/></g><g class="text"/></g><g class="trace scatter trace6adf5f" style="stroke-miterlimit: 2; opacity: 1;"><g class="fills" clip-path="url(#clipdd8358polar-for-traces)"><g><path class="js-fill" d="M366.61,235L304.16,22.14L233.19,233.68L175.91,277.93L259.9,311.63L366.61,235Z" style="fill: rgb(142, 68, 173); fill-opacity: 0.08; stroke-width: 0;"/></g></g><g class="errorbars"/><g class="lines"><path class="js-line" d="M366.61,235L304.16,22.14L233.19,233.68L175.91,277.93L259.9,311.63L366.61,235" clip-path="url(#clipdd8358polar-for-traces)" style="vector-effect: none; fill: none; stroke: rgb(142, 68, 173); stroke-opacity: 1; stroke-width: 2.5px; opacity: 1;"/></g><g class="points"><path class="point plotly-customdata" transform="translate(366.61,235)" d="M3.5,0A3.5,3.5 0 1,1 0,-3.5A3.5,3.5 0 0,1 3.5,0Z" style="opacity: 1; stroke-width: 0px; fill: rgb(142, 68, 173); fill-opacity: 1;"/><path class="point plotly-customdata" transform="translate(304.16,22.14)" d="M3.5,0A3.5,3.5 0 1,1 0,-3.5A3.5,3.5 0 0,1 3.5,0Z" style="opacity: 1; stroke-width: 0px; fill: rgb(142, 68, 173); fill-opacity: 1;"/><path class="point plotly-customdata" transform="translate(233.19,233.68)" d="M3.5,0A3.5,3.5 0 1,1 0,-3.5A3.5,3.5 0 0,1 3.5,0Z" style="opacity: 1; stroke-width: 0px; fill: rgb(142, 68, 173); fill-opacity: 1;"/><path class="point plotly-customdata" transform="translate(175.91,277.93)" d="M3.5,0A3.5,3.5 0 1,1 0,-3.5A3.5,3.5 0 0,1 3.5,0Z" style="opacity: 1; stroke-width: 0px; fill: rgb(142, 68, 173); fill-opacity: 1;"/><path class="point plotly-customdata" transform="translate(259.9,311.63)" d="M3.5,0A3.5,3.5 0 1,1 0,-3.5A3.5,3.5 0 0,1 3.5,0Z" style="opacity: 1; stroke-width: 0px; fill: rgb(142, 68, 173); fill-opacity: 1;"/><path class="point plotly-customdata" transform="translate(366.61,235)" d="M3.5,0A3.5,3.5 0 1,1 0,-3.5A3.5,3.5 0 0,1 3.5,0Z" style="opacity: 1; stroke-width: 0px; fill: rgb(142, 68, 173); fill-opacity: 1;"/></g><g class="text"/></g><g class="trace scatter trace43221d" style="stroke-miterlimit: 2; opacity: 1;"><g class="fills" clip-path="url(#clipdd8358polar-for-traces)"><g><path class="js-fill" d="M458.81,235L276.66,106.79L212.56,218.69L233.19,236.32L235.69,237.13L458.81,235Z" style="fill: rgb(192, 57, 43); fill-opacity: 0.08; stroke-width: 0;"/></g></g><g class="errorbars"/><g class="lines"><path class="js-line" d="M458.81,235L276.66,106.79L212.56,218.69L233.19,236.32L235.69,237.13L458.81,235" clip-path="url(#clipdd8358polar-for-traces)" style="vector-effect: none; fill: none; stroke: rgb(192, 57, 43); stroke-opacity: 1; stroke-width: 2.5px; opacity: 1;"/></g><g class="points"><path class="point plotly-customdata" transform="translate(458.81,235)" d="M3.5,0A3.5,3.5 0 1,1 0,-3.5A3.5,3.5 0 0,1 3.5,0Z" style="opacity: 1; stroke-width: 0px; fill: rgb(192, 57, 43); fill-opacity: 1;"/><path class="point plotly-customdata" transform="translate(276.66,106.79)" d="M3.5,0A3.5,3.5 0 1,1 0,-3.5A3.5,3.5 0 0,1 3.5,0Z" style="opacity: 1; stroke-width: 0px; fill: rgb(192, 57, 43); fill-opacity: 1;"/><path class="point plotly-customdata" transform="translate(212.56,218.69)" d="M3.5,0A3.5,3.5 0 1,1 0,-3.5A3.5,3.5 0 0,1 3.5,0Z" style="opacity: 1; stroke-width: 0px; fill: rgb(192, 57, 43); fill-opacity: 1;"/><path class="point plotly-customdata" transform="translate(233.19,236.32)" d="M3.5,0A3.5,3.5 0 1,1 0,-3.5A3.5,3.5 0 0,1 3.5,0Z" style="opacity: 1; stroke-width: 0px; fill: rgb(192, 57, 43); fill-opacity: 1;"/><path class="point plotly-customdata" transform="translate(235.69,237.13)" d="M3.5,0A3.5,3.5 0 1,1 0,-3.5A3.5,3.5 0 0,1 3.5,0Z" style="opacity: 1; stroke-width: 0px; fill: rgb(192, 57, 43); fill-opacity: 1;"/><path class="point plotly-customdata" transform="translate(458.81,235)" d="M3.5,0A3.5,3.5 0 1,1 0,-3.5A3.5,3.5 0 0,1 3.5,0Z" style="opacity: 1; stroke-width: 0px; fill: rgb(192, 57, 43); fill-opacity: 1;"/></g><g class="text"/></g></g></g><g class="polarsublayer angular-line"><path d="M235,0A235,235 0,1,0 -235,-2.87791997799628e-14A235,235 0,1,0 235,5.75583995599256e-14Z" transform="translate(345.89000000000004,355)" stroke-width="1" style="fill: none; stroke: rgb(255, 255, 255); stroke-opacity: 1;"/></g><g class="polarsublayer radial-line"><line x1="0" y1="0" x2="235" y2="0" transform="translate(345.89000000000004,355)" stroke-width="1" style="fill: none; stroke: rgb(255, 255, 255); stroke-opacity: 1;"/></g><g class="polarsublayer angular-axis"><g class="angularaxistick"><text text-anchor="start" x="2.9000000000000004" y="4.199999999999999" transform="translate(580.8900000000001,355)" style="font-family: Arial; font-size: 12px; fill: rgb(44, 62, 80); fill-opacity: 1; white-space: pre; opacity: 1;">Reliability</text></g><g class="angularaxistick"><text text-anchor="start" x="0.8961492836873477" y="-3.742728159989535" transform="translate(418.5089936781127,131.50171867063892)" style="font-family: Arial; font-size: 12px; fill: rgb(44, 62, 80); fill-opacity: 1; white-space: pre; opacity: 1;">Margin</text></g><g class="angularaxistick"><text text-anchor="end" x="-2.3461492836873474" y="0.2826095392246697" transform="translate(155.77100632188743,216.8704657112688)" style="font-family: Arial; font-size: 12px; fill: rgb(44, 62, 80); fill-opacity: 1; white-space: pre; opacity: 1;">Avg Ticket</text></g><g class="angularaxistick"><text text-anchor="end" x="-2.346149283687348" y="12.155871635532627" transform="translate(155.7710063218874,493.1295342887312)" style="font-family: Arial; font-size: 12px; fill: rgb(44, 62, 80); fill-opacity: 1; white-space: pre; opacity: 1;">Revenue</text></g><g class="angularaxistick"><text text-anchor="start" x="0.896149283687347" y="15.468613469172567" transform="translate(418.50899367811263,578.4982813293611)" style="font-family: Arial; font-size: 12px; fill: rgb(44, 62, 80); fill-opacity: 1; white-space: pre; opacity: 1;">Volume</text></g></g><g class="polarsublayer radial-axis" transform="translate(345.89000000000004,355)"><g class="xtick"><text text-anchor="middle" x="0" y="11.3" transform="translate(44.76,0)" style="font-family: Arial; font-size: 9px; fill: rgb(127, 140, 141); fill-opacity: 1; white-space: pre; opacity: 1;">20</text></g><g class="xtick"><text text-anchor="middle" x="0" y="11.3" transform="translate(89.52,0)" style="font-family: Arial; font-size: 9px; fill: rgb(127, 140, 141); fill-opacity: 1; white-space: pre; opacity: 1;">40</text></g><g class="xtick"><text text-anchor="middle" x="0" y="11.3" transform="translate(134.29,0)" style="font-family: Arial; font-size: 9px; fill: rgb(127, 140, 141); fill-opacity: 1; white-space: pre; opacity: 1;">60</text></g><g class="xtick"><text text-anchor="middle" x="0" y="11.3" transform="translate(179.05,0)" style="font-family: Arial; font-size: 9px; fill: rgb(127, 140, 141); fill-opacity: 1; white-space: pre; opacity: 1;">80</text></g><g class="xtick"><text text-anchor="middle" x="0" y="11.3" transform="translate(223.81,0)" style="font-family: Arial; font-size: 9px; fill: rgb(127, 140, 141); fill-opacity: 1; white-space: pre; opacity: 1;">100</text></g></g></g></g><g class="smithlayer"/><g class="ternarylayer"/><g class="geolayer"/><g class="funnelarealayer"/><g class="pielayer"/><g class="iciclelayer"/><g class="treemaplayer"/><g class="sunburstlayer"/><g class="glimages"/><defs id="topdefs-dd8358"><g class="clips"/><clipPath id="legenddd8358"><rect width="414" height="29" x="0" y="0"/></clipPath></defs><g class="layer-above"><g class="imagelayer"/><g class="shapelayer"><g class="shape-group" data-index="0" clip-path="url(#clipdd8358x)"><path data-index="0" fill-rule="evenodd" d="M1047.6200000000001,590L1047.6200000000001,120" style="opacity: 1; stroke: rgb(39, 174, 96); stroke-opacity: 1; fill: rgb(0, 0, 0); fill-opacity: 0; stroke-dasharray: 3px, 3px; stroke-width: 1.5px;"/></g><g class="shape-group" data-index="1" clip-path="url(#clipdd8358x)"><path data-index="1" fill-rule="evenodd" d="M884.9000000000001,590L884.9000000000001,120" style="opacity: 1; stroke: rgb(243, 156, 18); stroke-opacity: 1; fill: rgb(0, 0, 0); fill-opacity: 0; stroke-dasharray: 3px, 3px; stroke-width: 1.5px;"/></g></g></g><g class="infolayer"><g class="legend" pointer-events="all" transform="translate(169.40000000000003,72.19999999999999)"><rect class="bg" shape-rendering="crispEdges" width="414" height="29" x="0" y="0" style="stroke: rgb(68, 68, 68); stroke-opacity: 1; fill: rgb(255, 255, 255); fill-opacity: 0.8; stroke-width: 0px;"/><g class="scrollbox" transform="" clip-path="url(#legenddd8358)"><g class="groups"><g class="traces" transform="translate(0,14.5)" style="opacity: 1;"><text class="legendtext" text-anchor="start" x="40" y="4.29" style="font-family: Arial; font-size: 11px; fill: rgb(42, 63, 95); fill-opacity: 1; white-space: pre;">Europe</text><g class="layers" style="opacity: 1;"><g class="legendfill"><path class="js-fill" d="M5,0h30v6h-30z" style="stroke-width: 0; fill: rgb(41, 128, 185); fill-opacity: 0.08;"/></g><g class="legendlines"><path class="js-line" d="M5,0h30" style="fill: none; stroke: rgb(41, 128, 185); stroke-opacity: 1; stroke-width: 2.5px;"/></g><g class="legendsymbols"><g class="legendpoints"><path class="scatterpts" transform="translate(20,0)" d="M3.5,0A3.5,3.5 0 1,1 0,-3.5A3.5,3.5 0 0,1 3.5,0Z" style="opacity: 1; stroke-width: 0px; fill: rgb(41, 128, 185); fill-opacity: 1;"/></g></g></g><rect class="legendtoggle" x="0" y="-9.5" width="77.984375" height="19" style="fill: rgb(0, 0, 0); fill-opacity: 0;"/></g><g class="traces" transform="translate(80.484375,14.5)" style="opacity: 1;"><text class="legendtext" text-anchor="start" x="40" y="4.29" style="font-family: Arial; font-size: 11px; fill: rgb(42, 63, 95); fill-opacity: 1; white-space: pre;">LATAM</text><g class="layers" style="opacity: 1;"><g class="legendfill"><path class="js-fill" d="M5,0h30v6h-30z" style="stroke-width: 0; fill: rgb(230, 126, 34); fill-opacity: 0.08;"/></g><g class="legendlines"><path class="js-line" d="M5,0h30" style="fill: none; stroke: rgb(230, 126, 34); stroke-opacity: 1; stroke-width: 2.5px;"/></g><g class="legendsymbols"><g class="legendpoints"><path class="scatterpts" transform="translate(20,0)" d="M3.5,0A3.5,3.5 0 1,1 0,-3.5A3.5,3.5 0 0,1 3.5,0Z" style="opacity: 1; stroke-width: 0px; fill: rgb(230, 126, 34); fill-opacity: 1;"/></g></g></g><rect class="legendtoggle" x="0" y="-9.5" width="77.546875" height="19" style="fill: rgb(0, 0, 0); fill-opacity: 0;"/></g><g class="traces" transform="translate(160.53125,14.5)" style="opacity: 1;"><text class="legendtext" text-anchor="start" x="40" y="4.29" style="font-family: Arial; font-size: 11px; fill: rgb(42, 63, 95); fill-opacity: 1; white-space: pre;">Pacific Asia</text><g class="layers" style="opacity: 1;"><g class="legendfill"><path class="js-fill" d="M5,0h30v6h-30z" style="stroke-width: 0; fill: rgb(39, 174, 96); fill-opacity: 0.08;"/></g><g class="legendlines"><path class="js-line" d="M5,0h30" style="fill: none; stroke: rgb(39, 174, 96); stroke-opacity: 1; stroke-width: 2.5px;"/></g><g class="legendsymbols"><g class="legendpoints"><path class="scatterpts" transform="translate(20,0)" d="M3.5,0A3.5,3.5 0 1,1 0,-3.5A3.5,3.5 0 0,1 3.5,0Z" style="opacity: 1; stroke-width: 0px; fill: rgb(39, 174, 96); fill-opacity: 1;"/></g></g></g><rect class="legendtoggle" x="0" y="-9.5" width="100.25" height="19" style="fill: rgb(0, 0, 0); fill-opacity: 0;"/></g><g class="traces" transform="translate(263.28125,14.5)" style="opacity: 1;"><text class="legendtext" text-anchor="start" x="40" y="4.29" style="font-family: Arial; font-size: 11px; fill: rgb(42, 63, 95); fill-opacity: 1; white-space: pre;">USCA</text><g class="layers" style="opacity: 1;"><g class="legendfill"><path class="js-fill" d="M5,0h30v6h-30z" style="stroke-width: 0; fill: rgb(142, 68, 173); fill-opacity: 0.08;"/></g><g class="legendlines"><path class="js-line" d="M5,0h30" style="fill: none; stroke: rgb(142, 68, 173); stroke-opacity: 1; stroke-width: 2.5px;"/></g><g class="legendsymbols"><g class="legendpoints"><path class="scatterpts" transform="translate(20,0)" d="M3.5,0A3.5,3.5 0 1,1 0,-3.5A3.5,3.5 0 0,1 3.5,0Z" style="opacity: 1; stroke-width: 0px; fill: rgb(142, 68, 173); fill-opacity: 1;"/></g></g></g><rect class="legendtoggle" x="0" y="-9.5" width="73.734375" height="19" style="fill: rgb(0, 0, 0); fill-opacity: 0;"/></g><g class="traces" transform="translate(339.515625,14.5)" style="opacity: 1;"><text class="legendtext" text-anchor="start" x="40" y="4.29" style="font-family: Arial; font-size: 11px; fill: rgb(42, 63, 95); fill-opacity: 1; white-space: pre;">Africa</text><g class="layers" style="opacity: 1;"><g class="legendfill"><path class="js-fill" d="M5,0h30v6h-30z" style="stroke-width: 0; fill: rgb(192, 57, 43); fill-opacity: 0.08;"/></g><g class="legendlines"><path class="js-line" d="M5,0h30" style="fill: none; stroke: rgb(192, 57, 43); stroke-opacity: 1; stroke-width: 2.5px;"/></g><g class="legendsymbols"><g class="legendpoints"><path class="scatterpts" transform="translate(20,0)" d="M3.5,0A3.5,3.5 0 1,1 0,-3.5A3.5,3.5 0 0,1 3.5,0Z" style="opacity: 1; stroke-width: 0px; fill: rgb(192, 57, 43); fill-opacity: 1;"/></g></g></g><rect class="legendtoggle" x="0" y="-9.5" width="71.5" height="19" style="fill: rgb(0, 0, 0); fill-opacity: 0;"/></g></g></g><rect class="scrollbar" rx="20" ry="3" width="0" height="0" x="0" y="0" style="fill: rgb(128, 139, 164); fill-opacity: 1;"/></g><g class="g-gtitle"><text class="gtitle" x="625" y="19.5" text-anchor="middle" dy="0.7em" style="opacity: 1; font-family: Arial; font-size: 17px; fill: rgb(44, 62, 80); fill-opacity: 1; white-space: pre;"><tspan class="line" dy="0em" x="625" y="19.5"><tspan style="font-weight:bold">Strategic Market Audit - Performance Radar &amp; MSI Score</tspan></tspan><tspan class="line" dy="1.3em" x="625" y="19.5">​<tspan style="font-size:70%" dy="-0.6em">Radar = 5 KPIs normalized 0-100 | MSI = polygon area integral (higher = stronger market)</tspan><tspan dy="0.42em">​</tspan></tspan></text></g><g class="g-xtitle"><text class="xtitle" x="956.09" y="630.3" text-anchor="middle" style="opacity: 1; font-family: Arial; font-size: 14px; fill: rgb(42, 63, 95); fill-opacity: 1; white-space: pre;"><tspan style="font-weight:bold">MSI Score (%)</tspan></text></g><g class="g-ytitle"/><g class="g-polartitle"/><g class="annotation" data-index="0" style="opacity: 1;"><g class="annotation-text-g" transform="rotate(0,1047.6200000000001,89.89999999999996)"><g class="cursor-pointer" transform="translate(1030,82)"><rect class="bg" x="0.5" y="0.5" width="35" height="14" style="stroke-width: 1px; stroke: rgb(0, 0, 0); stroke-opacity: 0; fill: rgb(0, 0, 0); fill-opacity: 0;"/><text class="annotation-text" text-anchor="middle" x="18.109375" y="11" style="font-family: Arial; font-size: 10px; fill: rgb(39, 174, 96); fill-opacity: 1; white-space: pre;"><tspan style="font-weight:bold">Strong</tspan></text></g></g></g><g class="annotation" data-index="1" style="opacity: 1;"><g class="annotation-text-g" transform="rotate(0,884.9000000000001,89.89999999999996)"><g class="cursor-pointer" transform="translate(860,82)"><rect class="bg" x="0.5" y="0.5" width="48" height="14" style="stroke-width: 1px; stroke: rgb(0, 0, 0); stroke-opacity: 0; fill: rgb(0, 0, 0); fill-opacity: 0;"/><text class="annotation-text" text-anchor="middle" x="24.234375" y="11" style="font-family: Arial; font-size: 10px; fill: rgb(243, 156, 18); fill-opacity: 1; white-space: pre;"><tspan style="font-weight:bold">Moderate</tspan></text></g></g></g></g></svg>