<svg class="main-svg" xmlns="http://www.w3.org/2000/svg" xmlns:xlink="http://www.w3.org/1999/xlink" width="1100" height="620" style="" viewBox="0 0 1100 620"><rect x="0" y="0" width="1100" height="620" style="fill: rgb(0, 0, 0); fill-opacity: 0;"/><defs id="defs-e8729e"><g class="clips"><clipPath id="clipe8729exyplot" class="plotclip"><rect width="821" height="440"/></clipPath><clipPath class="axesclip" id="clipe8729ex"><rect x="104" y="0" width="821" height="620"/></clipPath><clipPath class="axesclip" id="clipe8729ey"><rect x="0" y="120" width="1100" height="440"/></clipPath><clipPath class="axesclip" id="clipe8729exy"><rect x="104" y="120" width="821" height="440"/></clipPath></g><g class="gradients"><linearGradient x1="0" y1="1" x2="0" y2="0" gradientUnits="objectBoundingBox" id="ge8729e-cbcoloraxis"><stop offset="0%" stop-color="rgb(165, 0, 38)" stop-opacity="1"/><stop offset="10%" stop-color="rgb(215, 48, 39)" stop-opacity="1"/><stop offset="20%" stop-color="rgb(244, 109, 67)" stop-opacity="1"/><stop offset="30%" stop-color="rgb(253, 174, 97)" stop-opacity="1"/><stop offset="40%" stop-color="rgb(254, 224, 139)" stop-opacity="1"/><stop offset="50%" stop-color="rgb(255, 255, 191)" stop-opacity="1"/><stop offset="60%" stop-color="rgb(217, 239, 139)" stop-opacity="1"/><stop offset="70%" stop-color="rgb(166, 217, 106)" stop-opacity="1"/><stop offset="80%" stop-color="rgb(102, 189, 99)" stop-opacity="1"/><stop offset="90%" stop-color="rgb(26, 152, 80)" stop-opacity="1"/><stop offset="100%" stop-color="rgb(0, 104, 55)" stop-opacity="1"/></linearGradient></g><g class="patterns"/></defs><g class="bglayer"><rect class="bg" x="104" y="120" width="821" height="440" style="fill: rgb(0, 0, 0); fill-opacity: 0; stroke-width: 0;"/></g><g class="layer-below"><g class="imagelayer"/><g class="shapelayer"/></g><g class="cartesianlayer"><g class="subplot xy"><g class="layer-subplot"><g class="shapelayer"/><g class="imagelayer"/></g><g class="minor-gridlayer"><g class="x"/><g class="y"/></g><g class="gridlayer"><g class="x"><path class="xgrid crisp" transform="translate(192.48000000000002,0)" d="M0,120v440" style="stroke: rgb(235, 240, 248); stroke-opacity: 1; stroke-width: 1px;"/><path class="xgrid crisp" transform="translate(414.61,0)" d="M0,120v440" style="stroke: rgb(235, 240, 248); stroke-opacity: 1; stroke-width: 1px;"/><path class="xgrid crisp" transform="translate(636.73,0)" d="M0,120v440" style="stroke: rgb(235, 240, 248); stroke-opacity: 1; stroke-width: 1px;"/><path class="xgrid crisp" transform="translate(858.85,0)" d="M0,120v440" style="stroke: rgb(235, 240, 248); stroke-opacity: 1; stroke-width: 1px;"/></g><g class="y"><path class="ygrid crisp" transform="translate(0,490.57)" d="M104,0h821" style="stroke: rgb(235, 240, 248); stroke-opacity: 1; stroke-width: 1px;"/><path class="ygrid crisp" transform="translate(0,330.08000000000004)" d="M104,0h821" style="stroke: rgb(235, 240, 248); stroke-opacity: 1; stroke-width: 1px;"/><path class="ygrid crisp" transform="translate(0,169.6)" d="M104,0h821" style="stroke: rgb(235, 240, 248); stroke-opacity: 1; stroke-width: 1px;"/></g></g><g class="zerolinelayer"/><g class="layer-between"><g class="shapelayer"/><g class="imagelayer"/></g><path class="xlines-below"/><path class="ylines-below"/><g class="overlines-below"/><g class="xaxislayer-below"/><g class="yaxislayer-below"/><g class="overaxes-below"/><g class="overplot"><g class="xy" transform="translate(104,120)" clip-path="url(#clipe8729exyplot)"><g class="scatterlayer mlayer"><g class="trace scatter tracea89e27" style="stroke-miterlimit: 2; opacity: 1;"><g class="fills"/><g class="errorbars"/><g class="lines"/><g class="points"><path class="point plotly-customdata" transform="translate(88.48,370.57)" d="M42.43,0A42.43,42.43 0 1,1 0,-42.43A42.43,42.43 0 0,1 42.43,0Z" style="opacity: 0.7; stroke-width: 1px; fill: rgb(251, 253, 186); fill-opacity: 1; stroke: rgb(47, 79, 79); stroke-opacity: 1;"/><path class="point plotly-customdata" transform="translate(310.61,370.57)" d="M33,0A33,33 0 1,1 0,-33A33,33 0 0,1 33,0Z" style="opacity: 0.7; stroke-width: 1px; fill: rgb(165, 0, 38); fill-opacity: 1; stroke: rgb(47, 79, 79); stroke-opacity: 1;"/><path class="point plotly-customdata" transform="translate(532.73,370.57)" d="M32.96,0A32.96,32.96 0 1,1 0,-32.96A32.96,32.96 0 0,1 32.96,0Z" style="opacity: 0.7; stroke-width: 1px; fill: rgb(254, 254, 189); fill-opacity: 1; stroke: rgb(47, 79, 79); stroke-opacity: 1;"/><path class="point plotly-customdata" transform="translate(754.85,370.57)" d="M22.45,0A22.45,22.45 0 1,1 0,-22.45A22.45,22.45 0 0,1 22.45,0Z" style="opacity: 0.7; stroke-width: 1px; fill: rgb(244, 250, 176); fill-opacity: 1; stroke: rgb(47, 79, 79); stroke-opacity: 1;"/><path class="point plotly-customdata" transform="translate(88.48,210.08)" d="M32.26,0A32.26,32.26 0 1,1 0,-32.26A32.26,32.26 0 0,1 32.26,0Z" style="opacity: 0.7; stroke-width: 1px; fill: rgb(252, 254, 186); fill-opacity: 1; stroke: rgb(47, 79, 79); stroke-opacity: 1;"/><path class="point plotly-customdata" transform="translate(310.61,210.08)" d="M25.48,0A25.48,25.48 0 1,1 0,-25.48A25.48,25.48 0 0,1 25.48,0Z" style="opacity: 0.7; stroke-width: 1px; fill: rgb(190, 24, 38); fill-opacity: 1; stroke: rgb(47, 79, 79); stroke-opacity: 1;"/><path class="point plotly-customdata" transform="translate(532.73,210.08)" d="M25,0A25,25 0 1,1 0,-25A25,25 0 0,1 25,0Z" style="opacity: 0.7; stroke-width: 1px; fill: rgb(255, 252, 185); fill-opacity: 1; stroke: rgb(47, 79, 79); stroke-opacity: 1;"/><path class="point plotly-customdata" transform="translate(754.85,210.08)" d="M17.6,0A17.6,17.6 0 1,1 0,-17.6A17.6,17.6 0 0,1 17.6,0Z" style="opacity: 0.7; stroke-width: 1px; fill: rgb(248, 252, 181); fill-opacity: 1; stroke: rgb(47, 79, 79); stroke-opacity: 1;"/><path class="point plotly-customdata" transform="translate(88.48,49.6)" d="M24.68,0A24.68,24.68 0 1,1 0,-24.68A24.68,24.68 0 0,1 24.68,0Z" style="opacity: 0.7; stroke-width: 1px; fill: rgb(255, 249, 182); fill-opacity: 1; stroke: rgb(47, 79, 79); stroke-opacity: 1;"/><path class="point plotly-customdata" transform="translate(310.61,49.6)" d="M19.47,0A19.47,19.47 0 1,1 0,-19.47A19.47,19.47 0 0,1 19.47,0Z" style="opacity: 0.7; stroke-width: 1px; fill: rgb(174, 9, 38); fill-opacity: 1; stroke: rgb(47, 79, 79); stroke-opacity: 1;"/><path class="point plotly-customdata" transform="translate(532.73,49.6)" d="M19.18,0A19.18,19.18 0 1,1 0,-19.18A19.18,19.18 0 0,1 19.18,0Z" style="opacity: 0.7; stroke-width: 1px; fill: rgb(249, 252, 182); fill-opacity: 1; stroke: rgb(47, 79, 79); stroke-opacity: 1;"/><path class="point plotly-customdata" transform="translate(754.85,49.6)" d="M13.2,0A13.2,13.2 0 1,1 0,-13.2A13.2,13.2 0 0,1 13.2,0Z" style="opacity: 0.7; stroke-width: 1px; fill: rgb(255, 254, 189); fill-opacity: 1; stroke: rgb(47, 79, 79); stroke-opacity: 1;"/></g><g class="text"><g class="textpoint" transform="translate(0,-57.033008588991066)"><text x="88.48" y="370.57" text-anchor="middle" style="font-family: 'Open Sans', verdana, arial, sans-serif; font-size: 12px; fill: rgb(42, 63, 95); fill-opacity: 1; white-space: pre;">$6.4M</text></g><g class="textpoint" transform="translate(0,-45.253041312692176)"><text x="310.61" y="370.57" text-anchor="middle" style="font-family: 'Open Sans', verdana, arial, sans-serif; font-size: 12px; fill: rgb(42, 63, 95); fill-opacity: 1; white-space: pre;">$3.8M</text></g><g class="textpoint" transform="translate(0,-45.19511477195578)"><text x="532.73" y="370.57" text-anchor="middle" style="font-family: 'Open Sans', verdana, arial, sans-serif; font-size: 12px; fill: rgb(42, 63, 95); fill-opacity: 1; white-space: pre;">$3.8M</text></g><g class="textpoint" transform="translate(0,-32.06267535509698)"><text x="754.85" y="370.57" text-anchor="middle" style="font-family: 'Open Sans', verdana, arial, sans-serif; font-size: 12px; fill: rgb(42, 63, 95); fill-opacity: 1; white-space: pre;">$1.8M</text></g><g class="textpoint" transform="translate(0,-44.32326928715282)"><text x="88.48" y="210.08" text-anchor="middle" style="font-family: 'Open Sans', verdana, arial, sans-serif; font-size: 12px; fill: rgb(42, 63, 95); fill-opacity: 1; white-space: pre;">$3.7M</text></g><g class="textpoint" transform="translate(0,-35.852668662413976)"><text x="310.61" y="210.08" text-anchor="middle" style="font-family: 'Open Sans', verdana, arial, sans-serif; font-size: 12px; fill: rgb(42, 63, 95); fill-opacity: 1; white-space: pre;">$2.3M</text></g><g class="textpoint" transform="translate(0,-35.25228268083097)"><text x="532.73" y="210.08" text-anchor="middle" style="font-family: 'Open Sans', verdana, arial, sans-serif; font-size: 12px; fill: rgb(42, 63, 95); fill-opacity: 1; white-space: pre;">$2.2M</text></g><g class="textpoint" transform="translate(0,-26.003845709550806)"><text x="754.85" y="210.08" text-anchor="middle" style="font-family: 'Open Sans', verdana, arial, sans-serif; font-size: 12px; fill: rgb(42, 63, 95); fill-opacity: 1; white-space: pre;">$1.1M</text></g><g class="textpoint" transform="translate(0,-34.85566157395951)"><text x="88.48" y="49.6" text-anchor="middle" style="font-family: 'Open Sans', verdana, arial, sans-serif; font-size: 12px; fill: rgb(42, 63, 95); fill-opacity: 1; white-space: pre;">$2.2M</text></g><g class="textpoint" transform="translate(0,-28.342074231757017)"><text x="310.61" y="49.6" text-anchor="middle" style="font-family: 'Open Sans', verdana, arial, sans-serif; font-size: 12px; fill: rgb(42, 63, 95); fill-opacity: 1; white-space: pre;">$1.3M</text></g><g class="textpoint" transform="translate(0,-27.976044467847128)"><text x="532.73" y="49.6" text-anchor="middle" style="font-family: 'Open Sans', verdana, arial, sans-serif; font-size: 12px; fill: rgb(42, 63, 95); fill-opacity: 1; white-space: pre;">$1.3M</text></g><g class="textpoint" transform="translate(0,-20.500299748473385)"><text x="754.85" y="49.6" text-anchor="middle" style="font-family: 'Open Sans', verdana, arial, sans-serif; font-size: 12px; fill: rgb(42, 63, 95); fill-opacity: 1; white-space: pre;">$0.6M</text></g></g></g></g></g></g><path class="xlines-above crisp" d="M0,0" style="fill: none;"/><path class="ylines-above crisp" d="M0,0" style="fill: none;"/><g class="overlines-above"/><g class="xaxislayer-above"><g class="xtick"><text text-anchor="middle" x="0" y="573" transform="translate(192.48000000000002,0)" style="font-family: 'Open Sans', verdana, arial, sans-serif; font-size: 12px; fill: rgb(42, 63, 95); fill-opacity: 1; white-space: pre; opacity: 1;">DEBIT</text></g><g class="xtick"><text text-anchor="middle" x="0" y="573" transform="translate(414.61,0)" style="font-family: 'Open Sans', verdana, arial, sans-serif; font-size: 12px; fill: rgb(42, 63, 95); fill-opacity: 1; white-space: pre; opacity: 1;">TRANSFER</text></g><g class="xtick"><text text-anchor="middle" x="0" y="573" transform="translate(636.73,0)" style="font-family: 'Open Sans', verdana, arial, sans-serif; font-size: 12px; fill: rgb(42, 63, 95); fill-opacity: 1; white-space: pre; opacity: 1;">PAYMENT</text></g><g class="xtick"><text text-anchor="middle" x="0" y="573" transform="translate(858.85,0)" style="font-family: 'Open Sans', verdana, arial, sans-serif; font-size: 12px; fill: rgb(42, 63, 95); fill-opacity: 1; white-space: pre; opacity: 1;">CASH</text></g></g><g class="yaxislayer-above"><g class="ytick"><text text-anchor="end" x="103" y="4.199999999999999" transform="translate(0,490.57)" style="font-family: 'Open Sans', verdana, arial, sans-serif; font-size: 12px; fill: rgb(42, 63, 95); fill-opacity: 1; white-space: pre; opacity: 1;">Consumer</text></g><g class="ytick"><text text-anchor="end" x="103" y="4.199999999999999" transform="translate(0,330.08000000000004)" style="font-family: 'Open Sans', verdana, arial, sans-serif; font-size: 12px; fill: rgb(42, 63, 95); fill-opacity: 1; white-space: pre; opacity: 1;">Corporate</text></g><g class="ytick"><text text-anchor="end" x="103" y="4.199999999999999" transform="translate(0,169.6)" style="font-family: 'Open Sans', verdana, arial, sans-serif; font-size: 12px; fill: rgb(42, 63, 95); fill-opacity: 1; white-space: pre; opacity: 1;">Home Office</text></g></g><g class="overaxes-above"/></g></g><g class="polarlayer"/><g class="smithlayer"/><g class="ternarylayer"/><g class="geolayer"/><g class="funnelarealayer"/><g class="pielayer"/><g class="iciclelayer"/><g class="treemaplayer"/><g class="sunburstlayer"/><g class="glimages"/><defs id="topdefs-e8729e"><g class="clips"/></defs><g class="layer-above"><g class="imagelayer"/><g class="shapelayer"/></g><g class="infolayer"><g class="cbcoloraxis colorbar" transform="translate(104,120)"><rect class="cbbg" x="837" y="0" width="146.203125" height="440" style="fill: rgb(0, 0, 0); fill-opacity: 0; stroke: rgb(68, 68, 68); stroke-opacity: 1; stroke-width: 0;"/><g class="cbfills" transform="translate(0,31)"><rect class="cbfill gradient_filled" style="fill: url('#ge8729e-cbcoloraxis');" x="847" y="0" width="30" height="399"/></g><g class="cblines" transform="translate(0,31)"/><g class="cbaxis crisp" transform="translate(0,-120)"><g class="ycbcoloraxistick"><text text-anchor="start" x="879.9" y="4.199999999999999" transform="translate(0,529.77)" style="font-family: 'Open Sans', verdana, arial, sans-serif; font-size: 12px; fill: rgb(42, 63, 95); fill-opacity: 1; white-space: pre; opacity: 1;">5</text></g><g class="ycbcoloraxistick"><text text-anchor="start" x="879.9" y="4.199999999999999" style="font-family: 'Open Sans', verdana, arial, sans-serif; font-size: 12px; fill: rgb(42, 63, 95); fill-opacity: 1; white-space: pre; opacity: 1;" transform="translate(0,464.77)">10</text></g><g class="ycbcoloraxistick"><text text-anchor="start" x="879.9" y="4.199999999999999" style="font-family: 'Open Sans', verdana, arial, sans-serif; font-size: 12px; fill: rgb(42, 63, 95); fill-opacity: 1; white-space: pre; opacity: 1;" transform="translate(0,399.78)">15</text></g><g class="ycbcoloraxistick"><text text-anchor="start" x="879.9" y="4.199999999999999" style="font-family: 'Open Sans', verdana, arial, sans-serif; font-size: 12px; fill: rgb(42, 63, 95); fill-opacity: 1; white-space: pre; opacity: 1;" transform="translate(0,334.78)">20</text></g><g class="ycbcoloraxistick"><text text-anchor="start" x="879.9" y="4.199999999999999" style="font-family: 'Open Sans', verdana, arial, sans-serif; font-size: 12px; fill: rgb(42, 63, 95); fill-opacity: 1; white-space: pre; opacity: 1;" transform="translate(0,269.79)">25</text></g><g class="ycbcoloraxistick"><text text-anchor="start" x="879.9" y="4.199999999999999" style="font-family: 'Open Sans', verdana, arial, sans-serif; font-size: 12px; fill: rgb(42, 63, 95); fill-opacity: 1; white-space: pre; opacity: 1;" transform="translate(0,204.79)">30</text></g></g><g class="cbtitleunshift" transform="translate(-104,-120)"><g class="cbtitle" transform=""><text class="ycbcoloraxistitle" x="951.42" y="143.5" text-anchor="start" style="opacity: 1; font-family: 'Open Sans', verdana, arial, sans-serif; font-size: 14px; fill: rgb(42, 63, 95); fill-opacity: 1; white-space: pre;">Effective Margin (%)</text></g></g><rect class="cboutline" x="847" y="31" width="30" height="399" style="stroke: rgb(68, 68, 68); stroke-opacity: 1; fill: none; stroke-width: 0;"/></g><g class="g-gtitle"><text class="gtitle" x="550" y="60" text-anchor="middle" dy="0em" style="opacity: 1; font-family: Arial; font-size: 20px; fill: rgb(42, 63, 95); fill-opacity: 1; white-space: pre;"><tspan class="line" dy="0em" x="550" y="60"><tspan style="font-weight:bold">Customer Segment Profitability Matrix by Payment Method</tspan></tspan><tspan class="line" dy="1.3em" x="550" y="60">​<tspan style="font-size:70%" dy="-0.6em">Bubble Size = Effective Revenue | Color = Effective Profit Margin | Labels = Effective Sales ($M)</tspan><tspan dy="0.42em">​</tspan></tspan></text></g><g class="g-xtitle"><text class="xtitle" x="514.5" y="600.3" text-anchor="middle" style="opacity: 1; font-family: 'Open Sans', verdana, arial, sans-serif; font-size: 14px; fill: rgb(42, 63, 95); fill-opacity: 1; white-space: pre;">Payment Method</text></g><g class="g-ytitle"><text class="ytitle" transform="rotate(-90,17.131249999999994,340)" x="17.131249999999994" y="340" text-anchor="middle" style="opacity: 1; font-family: 'Open Sans', verdana, arial, sans-serif; font-size: 14px; fill: rgb(42, 63, 95); fill-opacity: 1; white-space: pre;">Customer Segment</text></g></g></svg>